<svg width="60px" height="60px" viewBox="0 0 2.7 2.7" xmlns="http://www.w3.org/2000/svg" xmlns:xlink="http://www.w3.org/1999/xlink" aria-hidden="true" role="img" class="iconify iconify--twemoji" preserveAspectRatio="xMidYMid meet">
  <path fill="#FFAC33" d="M2.105 2.352c-0.167 0 -0.635 0.059 -0.755 0.137 -0.12 -0.079 -0.588 -0.137 -0.755 -0.137 -0.192 0 -0.087 0.078 -0.087 0.174S0.403 2.7 0.595 2.7c0.167 0 0.635 -0.059 0.755 -0.137C1.47 2.641 1.938 2.7 2.105 2.7c0.192 0 0.087 -0.078 0.087 -0.174s0.105 -0.174 -0.087 -0.174"/>
  <path fill="#292F33" d="M2.38 1.19c-0.094 -0.187 -0.236 -0.375 -0.371 -0.504C1.825 0.278 1.557 0 1.35 0s-0.475 0.278 -0.659 0.686c-0.134 0.13 -0.277 0.317 -0.371 0.504 -0.183 0.366 -0.234 0.857 -0.156 0.896 0.065 0.033 0.174 -0.116 0.316 -0.381C0.5 2.52 1.008 2.526 1.35 2.526c0.341 0 0.85 -0.005 0.87 -0.821 0.141 0.265 0.25 0.414 0.316 0.381 0.078 -0.039 0.027 -0.53 -0.156 -0.896"/>
  <path fill="#F5F8FA" d="M1.626 0.521c-0.064 0.046 -0.163 0.089 -0.276 0.089s-0.212 -0.043 -0.276 -0.089c-0.248 0.16 -0.421 0.529 -0.421 0.96 0 0.577 0.312 1.045 0.697 1.045 0.385 0 0.697 -0.468 0.697 -1.045 0 -0.43 -0.173 -0.8 -0.421 -0.96"/>
  <path fill="#FFAC33" d="M2.134 0.45h-0.436C1.41 0.45 1.35 0.391 1.35 0.319c0 -0.072 -0.027 -0.131 0.261 -0.131C2.047 0.189 2.221 0.45 2.134 0.45"/>
  <path fill="#F5F8FA" d="M1.263 0.261a0.087 0.087 0 1 1 -0.174 0 0.087 0.087 0 0 1 0.174 0"/>
</svg>
